<svg width="130" height="56" viewBox="0 0 130 56" fill="none" xmlns="http://www.w3.org/2000/svg">
<rect x="0.5" y="0.5" width="129" height="55" fill="#E4F222"/>
<rect x="0.5" y="0.5" width="129" height="55" stroke="#E4F222"/>
<path d="M30.304 29.488V28.112H35.44L35.296 34H34.096L34 32.112C33.44 33.376 32.304 34.272 30.208 34.272C26.544 34.272 24.592 31.424 24.592 28.288C24.592 25.152 26.64 22.304 30.4 22.304C33.296 22.304 34.848 24.032 35.376 25.984H33.648C33.248 24.704 32.32 23.76 30.4 23.76C27.696 23.76 26.32 25.936 26.32 28.288C26.32 30.64 27.664 32.816 30.272 32.816C32.112 32.816 33.776 31.872 33.872 29.472L30.304 29.488ZM44.7278 31.552C44.2638 33.264 42.8558 34.208 40.9518 34.208C38.4878 34.208 36.8398 32.432 36.8398 29.824C36.8398 27.328 38.5678 25.52 40.9358 25.52C43.7998 25.52 44.8398 27.776 44.8558 30.016V30.32H38.4238C38.5518 31.904 39.5438 32.864 40.9358 32.864C41.9598 32.864 42.8238 32.464 43.1118 31.552H44.7278ZM38.4398 29.088H43.2238C43.0958 27.776 42.3598 26.832 40.9358 26.832C39.5278 26.832 38.6318 27.744 38.4398 29.088ZM48.4451 31.424C48.4451 32.224 48.7811 32.672 49.5011 32.672H50.0611V34.016H49.2611C47.5011 34.016 46.8291 32.992 46.8291 31.584V27.04H45.5651V25.728H46.8291V23.808L48.4451 23.088V25.728H50.0451V27.04H48.4451V31.424ZM59.6763 28.208C59.5803 27.216 58.7643 26.832 57.9643 26.832C57.2123 26.832 56.5082 27.264 56.5082 27.904C56.5082 28.512 57.0843 28.864 57.8523 29.056C58.2363 29.152 58.5883 29.232 58.9563 29.328C60.2523 29.664 61.4043 30.288 61.4043 31.632C61.4043 33.328 59.6763 34.208 58.0763 34.208C56.5403 34.208 54.8123 33.504 54.6523 31.488H56.2843C56.4603 32.464 57.0683 32.88 58.1083 32.88C58.9083 32.88 59.7723 32.592 59.7723 31.728C59.7723 31.04 59.1163 30.816 58.3802 30.624C57.9963 30.528 57.5963 30.432 57.2123 30.32C55.9323 30 54.8923 29.248 54.8923 27.968C54.8923 26.432 56.4283 25.52 58.0123 25.52C59.7083 25.52 61.1003 26.416 61.2763 28.208H59.6763ZM64.9295 31.424C64.9295 32.224 65.2655 32.672 65.9855 32.672H66.5455V34.016H65.7455C63.9855 34.016 63.3135 32.992 63.3135 31.584V27.04H62.0495V25.728H63.3135V23.808L64.9295 23.088V25.728H66.5295V27.04H64.9295V31.424ZM68.0229 28.24C68.2149 26.976 69.2709 25.504 71.4309 25.504C74.3269 25.504 74.8389 27.312 74.8389 28.848V32.208C74.8389 32.832 74.8869 33.552 74.9669 34H73.2549C73.2229 33.648 73.2229 33.312 73.2229 32.912V32.56H73.2069C72.9669 33.216 72.2789 34.208 70.5189 34.208C68.5989 34.208 67.6229 32.992 67.6229 31.744C67.6229 29.424 70.5029 29.296 71.7189 29.088C72.7909 28.912 73.2069 28.656 73.2069 27.968C73.2069 27.28 72.5669 26.832 71.4629 26.832C70.5189 26.832 69.8149 27.376 69.6229 28.24H68.0229ZM69.2549 31.712C69.2549 32.432 69.8949 32.912 70.8869 32.912C72.0709 32.912 73.2389 32.16 73.2389 30.16V29.152C73.0629 29.648 72.6629 30.112 71.0789 30.384C69.9109 30.608 69.2549 30.944 69.2549 31.712ZM78.4213 25.728V27.328C78.8533 26.144 79.6853 25.68 80.9013 25.68V27.232C80.8213 27.232 80.4533 27.248 80.2133 27.312C79.3333 27.456 78.4373 27.888 78.4373 30.16V34H76.7893V25.728H78.4213ZM84.5545 31.424C84.5545 32.224 84.8905 32.672 85.6105 32.672H86.1705V34.016H85.3705C83.6105 34.016 82.9385 32.992 82.9385 31.584V27.04H81.6745V25.728H82.9385V23.808L84.5545 23.088V25.728H86.1545V27.04H84.5545V31.424ZM95.0246 31.552C94.5606 33.264 93.1526 34.208 91.2486 34.208C88.7846 34.208 87.1366 32.432 87.1366 29.824C87.1366 27.328 88.8646 25.52 91.2326 25.52C94.0966 25.52 95.1366 27.776 95.1526 30.016V30.32H88.7206C88.8486 31.904 89.8406 32.864 91.2326 32.864C92.2566 32.864 93.1206 32.464 93.4086 31.552H95.0246ZM88.7366 29.088H93.5206C93.3926 27.776 92.6566 26.832 91.2326 26.832C89.8246 26.832 88.9286 27.744 88.7366 29.088ZM100.023 25.52C101.495 25.52 102.487 26.496 102.775 27.312H102.791V22.576H104.455V34H102.775V32.464H102.759C102.455 33.248 101.495 34.192 100.023 34.192C97.7188 34.192 96.2148 32.432 96.2148 29.84C96.2148 27.248 97.7188 25.52 100.023 25.52ZM97.8468 29.84C97.8468 31.552 98.6948 32.832 100.359 32.832C102.071 32.832 102.871 31.408 102.871 29.84C102.871 28.304 102.055 26.88 100.359 26.88C98.7428 26.88 97.8468 28.144 97.8468 29.84Z" fill="#2E2E27"/>
</svg>
