<?xml version="1.0" encoding="UTF-8"?>
<svg id="Layer_2" data-name="Layer 2" xmlns="http://www.w3.org/2000/svg" viewBox="0 0 143.4 65.19">
  <defs>
    <style>
      .cls-1 {
        fill: #18332d;
        stroke: #75876f;
        stroke-miterlimit: 10;
      }
    </style>
  </defs>
  <g id="Layer_1-2" data-name="Layer 1">
    <path class="cls-1" d="M13.16,34.85s-10.19-3.43-12.41,6.3,11.12,8.52,14.27,7.78c0,0,1.39,10.47,14.08,10.47s15.56-5.74,15.56-5.74c0,0,8.15,11.58,30.94,11.02,0,0,15.65-1.02,20.19-11.76,0,0,10.75,7.41,31.12,2.32s15.47-16.21,15.47-16.21c0,0-2.32-4.54-10.28-2.59,0,0,2.78-18.71-11.21-17.79,0,0-1.95-.09-7.69.93,0,0,.65-6.3-9.63-5.93,0,0-1.78,0-3.52.77,0,0-5.38-13.06-20.01-13.83s-27.55,4.8-33.51,16.02c0,0-1.8,2.47-2.33,4.4-.1.35-.53.46-.79.2-1.66-1.63-6.74-5.06-17.31-.97-13.39,5.19-12.93,14.62-12.93,14.62Z"/>
  </g>
</svg>