<?xml version="1.0" encoding="UTF-8"?>
<svg id="Layer_2" data-name="Layer 2" xmlns="http://www.w3.org/2000/svg" viewBox="0 0 233.32 78.89">
  <defs>
    <style>
      .cls-1 {
        fill: #17332d;
        stroke: #75876f;
        stroke-miterlimit: 10;
      }
    </style>
  </defs>
  <g id="Layer_1-2" data-name="Layer 1">
    <path class="cls-1" d="M6.42,35.99s-3.09-9.6,5-16.49c8.09-6.89,19.85-2.19,19.85-2.19,0,0,1.62-7.35,11.47-6.47s10.59,7.35,10.59,7.35c0,0-1.46-17.69,17.95-17.69,16.89,0,18.71,10.42,19.05,13.81.04.36.42.57.75.41,1.45-.72,5.01-2.04,9.24-.43,5.54,2.12,4.32,7.41,4.32,7.41,0,0,6.04-16.59,24.1-14.12,18.06,2.47,17.19,21.83,17.19,21.83,0,0,2.52-5.57,13.19-2.08,0,0,4.85,1.84,7.28,7.96,0,0,4.04-5.98,17.34-5.01,2.75.2,5.42,1.05,7.87,2.33s6.19,2.75,9.04,1.82c4.75-1.55,7.91-2.52,25.13-2.04,0,0,9.85.19,6.26,6.99s-28.23,4.66-28.23,4.66c0,0-6.6,0-10.28,3.78-3.31,3.4-15.25,5.08-22.63,2.42-1.05-.38-2.17-.09-3.01.66-.92.82-2.98,1.58-7.54,1.29,0,0,2.91,8.93-7.37,11.06,0,0-5.24.87-7.28-1.26,0,0-1.75,8.54-18.63,9.22,0,0-6.62,2.02-14.4-5.39-.29-.27-.76-.19-.9.18-.71,1.8-3.04,5.97-9.14,5.46,0,0-4.34-.82-7.2-4.27-.26-.31-.74-.24-.91.12-1.37,2.93-7.12,12.29-24.09,10.98s-18.45-14.32-18.37-17.33c0-.21-.24-.32-.39-.18-1.28,1.21-5.65,4.38-15.29,3.43-11.84-1.16-14.26-8.93-14.26-8.93,0,0-8.54,4.46-16.25-1.55s-4.8-13.1-4.8-13.1c0,0,.18-2.57,5.38-4.63Z"/>
  </g>
</svg>