<?xml version="1.0" encoding="UTF-8"?>
<svg id="Layer_2" data-name="Layer 2" xmlns="http://www.w3.org/2000/svg" viewBox="0 0 123.62 50.36">
  <defs>
    <style>
      .cls-1 {
        fill: #17332d;
        stroke: #75876f;
        stroke-miterlimit: 10;
      }
    </style>
  </defs>
  <g id="Layer_1-2" data-name="Layer 1">
    <path class="cls-1" d="M.5,27.61s.62-17.47,17.1-15.35c0,0,4.49.37,8.11,3.25,0,0,1.25-4.6,5.87-3.42,0,0,.75-12.18,14.35-11.55,10.24.47,12.14,4.76,12.45,6.85.05.32.45.44.65.19.99-1.25,3.23-3.14,7.25-1.92s4.38,4.6,4.21,6.41c-.03.34.38.54.62.29,1.98-2,7.37-6.51,14.84-5.38,11.5,1.73,13.42,13.15,13.42,13.15,0,0,7.88-5.01,17.61-1.62s5,7.29,5,7.29c0,0-5.89,4.7-18.14,3.68-1.12-.09-2.25-.11-3.38-.1-2.45.01-6.61-.06-9.34-.62,0,0,1.93,6.62-7.42,6.33,0,0-1.83,0-3.06-.54-.21-.09-.45.03-.49.26-.3,1.72-1.98,7.41-11.39,7.5,0,0-4.73.45-7.35-3.28-.19-.27-.61-.19-.66.14-.38,2.76-2.48,9.87-13.85,10.63,0,0-10.73,1.01-14.35-5.68-.11-.2-.37-.27-.55-.12-.89.76-3.73,2.49-9.81.63,0,0-3.8-1.06-3.8-5.07,0,0-17.67,1.44-17.86-11.95Z"/>
  </g>
</svg>