<?xml version="1.0" encoding="UTF-8"?>
<svg id="Layer_2" data-name="Layer 2" xmlns="http://www.w3.org/2000/svg" viewBox="0 0 221.54 82.33">
  <defs>
    <style>
      .cls-1 {
        fill: #17332d;
        stroke: #75876f;
        stroke-miterlimit: 10;
      }
    </style>
  </defs>
  <g id="Layer_1-2" data-name="Layer 1">
    <path class="cls-1" d="M28.48,50.32s-19.95,2.74-27.35-5.91c-1.02-1.19-.78-3.01.51-3.9,4-2.78,13.15-7.17,26.83-2.44,0,0,4.22-6.19,13.76-2.09,0,0,4.82-6.35,16.57-4.84,0,0,3.52.5,6.43,2.51,0,0-1-5.93,3.21-6.43,0,0,2.71,0,4.02.8,0,0-4.52-11.95,6.63-17.38,0,0,6.33-1.51,9.94.6,0,0,.9-10.25,12.86-10.15s13.46,8.74,13.46,8.74c0,0,1.21-3.62,10.05-1.71,0,0,4.62,2.01,5.12,4.72,0,0,6.13-.6,7.53.6,0,0,3.52-13.06,17.48-12.96s20.39,14.87,20.39,14.87c0,0,7.03-2.41,16.88,9.24,0,0,12.46-3.21,19.89,2.81s10.05,13.96,7.23,25.31-17.38,13.36-26.72,11.35c0,0-7.01,4.69-15.65.69,0,0-2.56,13.59-17.27,14.03,0,0-6.15.16-8.04-2.19,0,0-2.35,6.32-10.85,5.05,0,0-6.66-.86-6.66-7.12,0,0-7.58,5.68-19.23,3.9,0,0-6.89-2.07-8.84-6.89,0,0-2.8,7.68-16.98,7.34s-13.77-13.17-13.77-13.17c0,0-6.16,2.2-11.91-2.36,0,0-4.98,7.94-20.52,5.07,0,0-7.69-2.11-7.77-11.23,0,0-7.07-.31-7.25-6.87Z"/>
  </g>
</svg>