<svg width="1107" height="67" viewBox="0 0 1107 67" fill="none" xmlns="http://www.w3.org/2000/svg">
<path d="M1 67V1.5H106L145.5 29.5H531.5" stroke="#dbdac9"/>
<path d="M106.867 0.276268C106.192 -0.202815 105.255 -0.0433044 104.776 0.632544C104.297 1.30839 104.457 2.24465 105.133 2.72373L106.867 0.276268ZM145.5 29.5L144.633 30.7237L145.022 31H145.5V29.5ZM207 29.5C207 33.9183 210.582 37.5 215 37.5C219.418 37.5 223 33.9183 223 29.5C223 25.0817 219.418 21.5 215 21.5C210.582 21.5 207 25.0817 207 29.5ZM105.133 2.72373L144.633 30.7237L146.367 28.2763L106.867 0.276268L105.133 2.72373ZM145.5 31H215V28H145.5V31Z" fill="#dbdac9"/>
<path d="M606 36.5V1H1106V40" stroke="#dbdac9"/>
<path d="M624.55 21.5V19.29H624.47L623 22.88L621.53 19.29H621.45V21.5V25H620.68V18.02H621.76L622.99 21.1H623.05L624.28 18.02H625.32V25H624.55V21.5ZM630.806 25L630.216 23.01H627.766L627.176 25H626.306L628.446 18.02H629.556L631.696 25H630.806ZM629.036 18.91H628.946L627.966 22.28H630.016L629.036 18.91ZM634.572 25V22.26L632.162 18.02H633.122L634.122 19.84L634.972 21.43H635.012L635.882 19.84L636.882 18.02H637.822L635.412 22.26V25H634.572ZM646.984 25.12C646.558 25.12 646.191 25.04 645.884 24.88C645.578 24.7133 645.324 24.4767 645.124 24.17C644.924 23.8633 644.778 23.4867 644.684 23.04C644.591 22.5933 644.544 22.0833 644.544 21.51C644.544 20.9433 644.591 20.4367 644.684 19.99C644.778 19.5367 644.924 19.1567 645.124 18.85C645.324 18.5433 645.578 18.31 645.884 18.15C646.191 17.9833 646.558 17.9 646.984 17.9C647.411 17.9 647.778 17.9833 648.084 18.15C648.391 18.31 648.644 18.5433 648.844 18.85C649.044 19.1567 649.191 19.5367 649.284 19.99C649.378 20.4367 649.424 20.9433 649.424 21.51C649.424 22.0833 649.378 22.5933 649.284 23.04C649.191 23.4867 649.044 23.8633 648.844 24.17C648.644 24.4767 648.391 24.7133 648.084 24.88C647.778 25.04 647.411 25.12 646.984 25.12ZM646.984 24.39C647.264 24.39 647.504 24.3367 647.704 24.23C647.904 24.1167 648.064 23.96 648.184 23.76C648.311 23.56 648.404 23.32 648.464 23.04C648.524 22.7533 648.554 22.4333 648.554 22.08V20.94C648.554 20.5933 648.524 20.2767 648.464 19.99C648.404 19.7033 648.311 19.46 648.184 19.26C648.064 19.06 647.904 18.9067 647.704 18.8C647.504 18.6867 647.264 18.63 646.984 18.63C646.704 18.63 646.464 18.6867 646.264 18.8C646.064 18.9067 645.901 19.06 645.774 19.26C645.654 19.46 645.564 19.7033 645.504 19.99C645.444 20.2767 645.414 20.5933 645.414 20.94V22.08C645.414 22.4333 645.444 22.7533 645.504 23.04C645.564 23.32 645.654 23.56 645.774 23.76C645.901 23.96 646.064 24.1167 646.264 24.23C646.464 24.3367 646.704 24.39 646.984 24.39ZM646.984 22.1C646.751 22.1 646.588 22.0533 646.494 21.96C646.408 21.8667 646.364 21.7533 646.364 21.62V21.4C646.364 21.2667 646.408 21.1533 646.494 21.06C646.588 20.9667 646.751 20.92 646.984 20.92C647.218 20.92 647.378 20.9667 647.464 21.06C647.558 21.1533 647.604 21.2667 647.604 21.4V21.62C647.604 21.7533 647.558 21.8667 647.464 21.96C647.378 22.0533 647.218 22.1 646.984 22.1ZM651.71 25L654.44 18.74H651.38V20.04H650.63V18.02H655.29V18.76L652.61 25H651.71ZM658.547 23.64H659.837L658.687 26.41H658.017L658.547 23.64ZM673.339 25H668.679V24.14L671.009 22.04C671.349 21.7333 671.629 21.42 671.849 21.1C672.069 20.7733 672.179 20.43 672.179 20.07V19.95C672.179 19.53 672.069 19.2067 671.849 18.98C671.629 18.7467 671.302 18.63 670.869 18.63C670.442 18.63 670.112 18.74 669.879 18.96C669.652 19.1733 669.482 19.46 669.369 19.82L668.619 19.54C668.685 19.3333 668.775 19.1333 668.889 18.94C669.009 18.74 669.159 18.5633 669.339 18.41C669.519 18.2567 669.735 18.1333 669.989 18.04C670.249 17.9467 670.549 17.9 670.889 17.9C671.235 17.9 671.542 17.95 671.809 18.05C672.082 18.15 672.309 18.29 672.489 18.47C672.675 18.65 672.815 18.8633 672.909 19.11C673.009 19.3567 673.059 19.6267 673.059 19.92C673.059 20.1867 673.019 20.4367 672.939 20.67C672.865 20.9033 672.759 21.1267 672.619 21.34C672.485 21.5533 672.322 21.7633 672.129 21.97C671.942 22.17 671.732 22.37 671.499 22.57L669.549 24.27H673.339V25ZM676.965 25.12C676.538 25.12 676.172 25.04 675.865 24.88C675.558 24.7133 675.305 24.4767 675.105 24.17C674.905 23.8633 674.758 23.4867 674.665 23.04C674.572 22.5933 674.525 22.0833 674.525 21.51C674.525 20.9433 674.572 20.4367 674.665 19.99C674.758 19.5367 674.905 19.1567 675.105 18.85C675.305 18.5433 675.558 18.31 675.865 18.15C676.172 17.9833 676.538 17.9 676.965 17.9C677.392 17.9 677.758 17.9833 678.065 18.15C678.372 18.31 678.625 18.5433 678.825 18.85C679.025 19.1567 679.172 19.5367 679.265 19.99C679.358 20.4367 679.405 20.9433 679.405 21.51C679.405 22.0833 679.358 22.5933 679.265 23.04C679.172 23.4867 679.025 23.8633 678.825 24.17C678.625 24.4767 678.372 24.7133 678.065 24.88C677.758 25.04 677.392 25.12 676.965 25.12ZM676.965 24.39C677.245 24.39 677.485 24.3367 677.685 24.23C677.885 24.1167 678.045 23.96 678.165 23.76C678.292 23.56 678.385 23.32 678.445 23.04C678.505 22.7533 678.535 22.4333 678.535 22.08V20.94C678.535 20.5933 678.505 20.2767 678.445 19.99C678.385 19.7033 678.292 19.46 678.165 19.26C678.045 19.06 677.885 18.9067 677.685 18.8C677.485 18.6867 677.245 18.63 676.965 18.63C676.685 18.63 676.445 18.6867 676.245 18.8C676.045 18.9067 675.882 19.06 675.755 19.26C675.635 19.46 675.545 19.7033 675.485 19.99C675.425 20.2767 675.395 20.5933 675.395 20.94V22.08C675.395 22.4333 675.425 22.7533 675.485 23.04C675.545 23.32 675.635 23.56 675.755 23.76C675.882 23.96 676.045 24.1167 676.245 24.23C676.445 24.3367 676.685 24.39 676.965 24.39ZM676.965 22.1C676.732 22.1 676.568 22.0533 676.475 21.96C676.388 21.8667 676.345 21.7533 676.345 21.62V21.4C676.345 21.2667 676.388 21.1533 676.475 21.06C676.568 20.9667 676.732 20.92 676.965 20.92C677.198 20.92 677.358 20.9667 677.445 21.06C677.538 21.1533 677.585 21.2667 677.585 21.4V21.62C677.585 21.7533 677.538 21.8667 677.445 21.96C677.358 22.0533 677.198 22.1 676.965 22.1ZM685.331 25H680.671V24.14L683.001 22.04C683.341 21.7333 683.621 21.42 683.841 21.1C684.061 20.7733 684.171 20.43 684.171 20.07V19.95C684.171 19.53 684.061 19.2067 683.841 18.98C683.621 18.7467 683.294 18.63 682.861 18.63C682.434 18.63 682.104 18.74 681.871 18.96C681.644 19.1733 681.474 19.46 681.361 19.82L680.611 19.54C680.678 19.3333 680.768 19.1333 680.881 18.94C681.001 18.74 681.151 18.5633 681.331 18.41C681.511 18.2567 681.728 18.1333 681.981 18.04C682.241 17.9467 682.541 17.9 682.881 17.9C683.228 17.9 683.534 17.95 683.801 18.05C684.074 18.15 684.301 18.29 684.481 18.47C684.668 18.65 684.808 18.8633 684.901 19.11C685.001 19.3567 685.051 19.6267 685.051 19.92C685.051 20.1867 685.011 20.4367 684.931 20.67C684.858 20.9033 684.751 21.1267 684.611 21.34C684.478 21.5533 684.314 21.7633 684.121 21.97C683.934 22.17 683.724 22.37 683.491 22.57L681.541 24.27H685.331V25ZM689.737 25V23.63H686.297V22.89L689.317 18.02H690.537V22.94H691.577V23.63H690.537V25H689.737ZM687.047 22.94H689.737V18.67H689.697L687.047 22.94Z" fill="#AABCA3"/>
<path d="M822.6 18.75V25H821.76V18.75H819.43V18.02H824.93V18.75H822.6ZM829.536 21.83H826.816V25H825.976V18.02H826.816V21.1H829.536V18.02H830.376V25H829.536V21.83ZM832.072 25V18.02H836.372V18.75H832.912V21.1H836.252V21.83H832.912V24.27H836.372V25H832.072ZM844.064 25V18.02H848.464V18.75H844.904V21.1H848.164V21.83H844.904V25H844.064ZM850.8 18.02V22.21C850.8 22.55 850.81 22.8533 850.83 23.12C850.85 23.3867 850.903 23.6167 850.99 23.81C851.077 23.9967 851.21 24.14 851.39 24.24C851.577 24.34 851.833 24.39 852.16 24.39C852.487 24.39 852.74 24.34 852.92 24.24C853.107 24.14 853.243 23.9967 853.33 23.81C853.417 23.6167 853.47 23.3867 853.49 23.12C853.51 22.8533 853.52 22.55 853.52 22.21V18.02H854.36V22.01C854.36 22.53 854.333 22.9833 854.28 23.37C854.233 23.7567 854.13 24.08 853.97 24.34C853.817 24.6 853.593 24.7967 853.3 24.93C853.013 25.0567 852.633 25.12 852.16 25.12C851.687 25.12 851.303 25.0567 851.01 24.93C850.723 24.7967 850.5 24.6 850.34 24.34C850.187 24.08 850.083 23.7567 850.03 23.37C849.983 22.9833 849.96 22.53 849.96 22.01V18.02H850.8ZM858.576 18.75V25H857.736V18.75H855.406V18.02H860.906V18.75H858.576ZM862.792 18.02V22.21C862.792 22.55 862.802 22.8533 862.822 23.12C862.842 23.3867 862.896 23.6167 862.982 23.81C863.069 23.9967 863.202 24.14 863.382 24.24C863.569 24.34 863.826 24.39 864.152 24.39C864.479 24.39 864.732 24.34 864.912 24.24C865.099 24.14 865.236 23.9967 865.322 23.81C865.409 23.6167 865.462 23.3867 865.482 23.12C865.502 22.8533 865.512 22.55 865.512 22.21V18.02H866.352V22.01C866.352 22.53 866.326 22.9833 866.272 23.37C866.226 23.7567 866.122 24.08 865.962 24.34C865.809 24.6 865.586 24.7967 865.292 24.93C865.006 25.0567 864.626 25.12 864.152 25.12C863.679 25.12 863.296 25.0567 863.002 24.93C862.716 24.7967 862.492 24.6 862.332 24.34C862.179 24.08 862.076 23.7567 862.022 23.37C861.976 22.9833 861.952 22.53 861.952 22.01V18.02H862.792ZM868.888 25H868.048V18.02H870.588C871.235 18.02 871.728 18.1967 872.068 18.55C872.408 18.9033 872.578 19.3967 872.578 20.03C872.578 20.5967 872.432 21.05 872.138 21.39C871.845 21.73 871.418 21.9267 870.858 21.98L872.638 25H871.698L869.998 22.02H868.888V25ZM870.568 21.31C870.922 21.31 871.195 21.2233 871.388 21.05C871.588 20.87 871.688 20.6167 871.688 20.29V19.77C871.688 19.4433 871.588 19.1933 871.388 19.02C871.195 18.84 870.922 18.75 870.568 18.75H868.888V21.31H870.568ZM874.045 25V18.02H878.345V18.75H874.885V21.1H878.225V21.83H874.885V24.27H878.345V25H874.045ZM888.137 25.12C887.71 25.12 887.343 25.04 887.037 24.88C886.73 24.7133 886.477 24.4767 886.277 24.17C886.077 23.8633 885.93 23.4867 885.837 23.04C885.743 22.5933 885.697 22.0833 885.697 21.51C885.697 20.9433 885.743 20.4367 885.837 19.99C885.93 19.5367 886.077 19.1567 886.277 18.85C886.477 18.5433 886.73 18.31 887.037 18.15C887.343 17.9833 887.71 17.9 888.137 17.9C888.563 17.9 888.93 17.9833 889.237 18.15C889.543 18.31 889.797 18.5433 889.997 18.85C890.197 19.1567 890.343 19.5367 890.437 19.99C890.53 20.4367 890.577 20.9433 890.577 21.51C890.577 22.0833 890.53 22.5933 890.437 23.04C890.343 23.4867 890.197 23.8633 889.997 24.17C889.797 24.4767 889.543 24.7133 889.237 24.88C888.93 25.04 888.563 25.12 888.137 25.12ZM888.137 24.39C888.417 24.39 888.653 24.3367 888.847 24.23C889.04 24.1167 889.2 23.96 889.327 23.76C889.453 23.56 889.543 23.32 889.597 23.04C889.657 22.7533 889.687 22.4333 889.687 22.08V20.94C889.687 20.5933 889.657 20.2767 889.597 19.99C889.543 19.7033 889.453 19.46 889.327 19.26C889.2 19.06 889.04 18.9067 888.847 18.8C888.653 18.6867 888.417 18.63 888.137 18.63C887.857 18.63 887.62 18.6867 887.427 18.8C887.233 18.9067 887.073 19.06 886.947 19.26C886.82 19.46 886.727 19.7033 886.667 19.99C886.613 20.2767 886.587 20.5933 886.587 20.94V22.08C886.587 22.4333 886.613 22.7533 886.667 23.04C886.727 23.32 886.82 23.56 886.947 23.76C887.073 23.96 887.233 24.1167 887.427 24.23C887.62 24.3367 887.857 24.39 888.137 24.39ZM892.033 25V18.02H896.433V18.75H892.873V21.1H896.133V21.83H892.873V25H892.033ZM904.005 18.02H906.375C906.975 18.02 907.445 18.1833 907.785 18.51C908.125 18.8367 908.295 19.2733 908.295 19.82C908.295 20.24 908.192 20.57 907.985 20.81C907.785 21.05 907.525 21.22 907.205 21.32V21.35C907.598 21.4433 907.922 21.62 908.175 21.88C908.428 22.1333 908.555 22.5033 908.555 22.99C908.555 23.27 908.508 23.5333 908.415 23.78C908.322 24.0267 908.188 24.24 908.015 24.42C907.848 24.6 907.648 24.7433 907.415 24.85C907.188 24.95 906.942 25 906.675 25H904.005V18.02ZM906.425 24.27C906.812 24.27 907.115 24.1833 907.335 24.01C907.555 23.8367 907.665 23.57 907.665 23.21V22.8C907.665 22.4467 907.555 22.1833 907.335 22.01C907.115 21.83 906.812 21.74 906.425 21.74H904.845V24.27H906.425ZM906.285 21.05C906.638 21.05 906.915 20.9733 907.115 20.82C907.315 20.66 907.415 20.42 907.415 20.1V19.71C907.415 19.39 907.315 19.15 907.115 18.99C906.915 18.83 906.638 18.75 906.285 18.75H904.845V21.05H906.285ZM910.761 18.02V22.21C910.761 22.55 910.771 22.8533 910.791 23.12C910.811 23.3867 910.864 23.6167 910.951 23.81C911.038 23.9967 911.171 24.14 911.351 24.24C911.538 24.34 911.794 24.39 912.121 24.39C912.448 24.39 912.701 24.34 912.881 24.24C913.068 24.14 913.204 23.9967 913.291 23.81C913.378 23.6167 913.431 23.3867 913.451 23.12C913.471 22.8533 913.481 22.55 913.481 22.21V18.02H914.321V22.01C914.321 22.53 914.294 22.9833 914.241 23.37C914.194 23.7567 914.091 24.08 913.931 24.34C913.778 24.6 913.554 24.7967 913.261 24.93C912.974 25.0567 912.594 25.12 912.121 25.12C911.648 25.12 911.264 25.0567 910.971 24.93C910.684 24.7967 910.461 24.6 910.301 24.34C910.148 24.08 910.044 23.7567 909.991 23.37C909.944 22.9833 909.921 22.53 909.921 22.01V18.02H910.761ZM918.097 25.12C917.471 25.12 916.957 25.0067 916.557 24.78C916.157 24.5467 915.827 24.25 915.567 23.89L916.177 23.39C916.451 23.73 916.737 23.9833 917.037 24.15C917.344 24.3167 917.707 24.4 918.127 24.4C918.634 24.4 919.021 24.2833 919.287 24.05C919.554 23.8167 919.687 23.49 919.687 23.07C919.687 22.73 919.591 22.4667 919.397 22.28C919.204 22.0867 918.867 21.95 918.387 21.87L917.607 21.74C917.267 21.68 916.981 21.59 916.747 21.47C916.521 21.35 916.337 21.2067 916.197 21.04C916.057 20.8667 915.957 20.68 915.897 20.48C915.837 20.2733 915.807 20.06 915.807 19.84C915.807 19.2 916.017 18.7167 916.437 18.39C916.857 18.0633 917.424 17.9 918.137 17.9C918.697 17.9 919.167 17.9933 919.547 18.18C919.934 18.3667 920.244 18.63 920.477 18.97L919.887 19.48C919.694 19.2267 919.461 19.02 919.187 18.86C918.914 18.7 918.561 18.62 918.127 18.62C917.654 18.62 917.291 18.72 917.037 18.92C916.784 19.12 916.657 19.42 916.657 19.82C916.657 20.1333 916.751 20.39 916.937 20.59C917.131 20.7833 917.474 20.9233 917.967 21.01L918.717 21.14C919.057 21.2 919.344 21.29 919.577 21.41C919.811 21.53 919.997 21.6733 920.137 21.84C920.284 22.0067 920.387 22.1933 920.447 22.4C920.507 22.6067 920.537 22.8233 920.537 23.05C920.537 23.6967 920.324 24.2033 919.897 24.57C919.477 24.9367 918.877 25.12 918.097 25.12ZM921.953 25V24.33H923.693V18.69H921.953V18.02H926.273V18.69H924.533V24.33H926.273V25H921.953ZM928.739 19.09H928.669V25H927.909V18.02H929.099L931.479 23.87H931.549V18.02H932.309V25H931.119L928.739 19.09ZM934.005 25V18.02H938.305V18.75H934.845V21.1H938.185V21.83H934.845V24.27H938.305V25H934.005ZM942.082 25.12C941.455 25.12 940.942 25.0067 940.542 24.78C940.142 24.5467 939.812 24.25 939.552 23.89L940.162 23.39C940.435 23.73 940.722 23.9833 941.022 24.15C941.328 24.3167 941.692 24.4 942.112 24.4C942.618 24.4 943.005 24.2833 943.272 24.05C943.538 23.8167 943.672 23.49 943.672 23.07C943.672 22.73 943.575 22.4667 943.382 22.28C943.188 22.0867 942.852 21.95 942.372 21.87L941.592 21.74C941.252 21.68 940.965 21.59 940.732 21.47C940.505 21.35 940.322 21.2067 940.182 21.04C940.042 20.8667 939.942 20.68 939.882 20.48C939.822 20.2733 939.792 20.06 939.792 19.84C939.792 19.2 940.002 18.7167 940.422 18.39C940.842 18.0633 941.408 17.9 942.122 17.9C942.682 17.9 943.152 17.9933 943.532 18.18C943.918 18.3667 944.228 18.63 944.462 18.97L943.872 19.48C943.678 19.2267 943.445 19.02 943.172 18.86C942.898 18.7 942.545 18.62 942.112 18.62C941.638 18.62 941.275 18.72 941.022 18.92C940.768 19.12 940.642 19.42 940.642 19.82C940.642 20.1333 940.735 20.39 940.922 20.59C941.115 20.7833 941.458 20.9233 941.952 21.01L942.702 21.14C943.042 21.2 943.328 21.29 943.562 21.41C943.795 21.53 943.982 21.6733 944.122 21.84C944.268 22.0067 944.372 22.1933 944.432 22.4C944.492 22.6067 944.522 22.8233 944.522 23.05C944.522 23.6967 944.308 24.2033 943.882 24.57C943.462 24.9367 942.862 25.12 942.082 25.12ZM948.078 25.12C947.451 25.12 946.938 25.0067 946.538 24.78C946.138 24.5467 945.808 24.25 945.548 23.89L946.158 23.39C946.431 23.73 946.718 23.9833 947.018 24.15C947.324 24.3167 947.688 24.4 948.108 24.4C948.614 24.4 949.001 24.2833 949.268 24.05C949.534 23.8167 949.668 23.49 949.668 23.07C949.668 22.73 949.571 22.4667 949.378 22.28C949.184 22.0867 948.848 21.95 948.368 21.87L947.588 21.74C947.248 21.68 946.961 21.59 946.728 21.47C946.501 21.35 946.318 21.2067 946.178 21.04C946.038 20.8667 945.938 20.68 945.878 20.48C945.818 20.2733 945.788 20.06 945.788 19.84C945.788 19.2 945.998 18.7167 946.418 18.39C946.838 18.0633 947.404 17.9 948.118 17.9C948.678 17.9 949.148 17.9933 949.528 18.18C949.914 18.3667 950.224 18.63 950.458 18.97L949.868 19.48C949.674 19.2267 949.441 19.02 949.168 18.86C948.894 18.7 948.541 18.62 948.108 18.62C947.634 18.62 947.271 18.72 947.018 18.92C946.764 19.12 946.638 19.42 946.638 19.82C946.638 20.1333 946.731 20.39 946.918 20.59C947.111 20.7833 947.454 20.9233 947.948 21.01L948.698 21.14C949.038 21.2 949.324 21.29 949.558 21.41C949.791 21.53 949.978 21.6733 950.118 21.84C950.264 22.0067 950.368 22.1933 950.428 22.4C950.488 22.6067 950.518 22.8233 950.518 23.05C950.518 23.6967 950.304 24.2033 949.878 24.57C949.458 24.9367 948.858 25.12 948.078 25.12ZM960.51 18.75V25H959.67V18.75H957.34V18.02H962.84V18.75H960.51ZM964.826 25H963.986V18.02H966.526C967.173 18.02 967.666 18.1967 968.006 18.55C968.346 18.9033 968.516 19.3967 968.516 20.03C968.516 20.5967 968.369 21.05 968.076 21.39C967.783 21.73 967.356 21.9267 966.796 21.98L968.576 25H967.636L965.936 22.02H964.826V25ZM966.506 21.31C966.859 21.31 967.133 21.2233 967.326 21.05C967.526 20.87 967.626 20.6167 967.626 20.29V19.77C967.626 19.4433 967.526 19.1933 967.326 19.02C967.133 18.84 966.859 18.75 966.506 18.75H964.826V21.31H966.506ZM973.892 25L973.302 23.01H970.852L970.262 25H969.392L971.532 18.02H972.642L974.782 25H973.892ZM972.122 18.91H972.032L971.052 22.28H973.102L972.122 18.91ZM977.508 25L975.438 18.02H976.328L977.318 21.51L978.068 24.15H978.118L978.868 21.51L979.858 18.02H980.718L978.648 25H977.508ZM981.974 25V18.02H986.274V18.75H982.814V21.1H986.154V21.83H982.814V24.27H986.274V25H981.974ZM988.27 25V18.02H989.11V24.27H992.42V25H988.27ZM996.066 25.09C995.793 25.09 995.6 25.0333 995.486 24.92C995.38 24.8067 995.326 24.6633 995.326 24.49V24.31C995.326 24.1367 995.38 23.9933 995.486 23.88C995.6 23.7667 995.793 23.71 996.066 23.71C996.34 23.71 996.53 23.7667 996.636 23.88C996.75 23.9933 996.806 24.1367 996.806 24.31V24.49C996.806 24.6633 996.75 24.8067 996.636 24.92C996.53 25.0333 996.34 25.09 996.066 25.09ZM1002.06 25.09C1001.79 25.09 1001.6 25.0333 1001.48 24.92C1001.38 24.8067 1001.32 24.6633 1001.32 24.49V24.31C1001.32 24.1367 1001.38 23.9933 1001.48 23.88C1001.6 23.7667 1001.79 23.71 1002.06 23.71C1002.34 23.71 1002.53 23.7667 1002.63 23.88C1002.75 23.9933 1002.8 24.1367 1002.8 24.31V24.49C1002.8 24.6633 1002.75 24.8067 1002.63 24.92C1002.53 25.0333 1002.34 25.09 1002.06 25.09ZM1015.86 25L1015.27 23.01H1012.82L1012.23 25H1011.36L1013.5 18.02H1014.61L1016.75 25H1015.86ZM1014.09 18.91H1014L1013.02 22.28H1015.07L1014.09 18.91ZM1018.68 19.09H1018.61V25H1017.85V18.02H1019.04L1021.42 23.87H1021.49V18.02H1022.25V25H1021.06L1018.68 19.09ZM1024 18.02H1025.95C1026.8 18.02 1027.44 18.3133 1027.86 18.9C1028.28 19.4867 1028.49 20.3567 1028.49 21.51C1028.49 22.6633 1028.28 23.5333 1027.86 24.12C1027.44 24.7067 1026.8 25 1025.95 25H1024V18.02ZM1025.91 24.27C1026.47 24.27 1026.89 24.0767 1027.17 23.69C1027.45 23.3033 1027.6 22.7567 1027.6 22.05V20.97C1027.6 20.2633 1027.45 19.7167 1027.17 19.33C1026.89 18.9433 1026.47 18.75 1025.91 18.75H1024.84V24.27H1025.91ZM1035.88 25V24.33H1037.62V18.69H1035.88V18.02H1040.2V18.69H1038.46V24.33H1040.2V25H1035.88ZM1044.46 18.75V25H1043.62V18.75H1041.29V18.02H1046.79V18.75H1044.46ZM1049.79 17.6H1051.08L1049.93 20.37H1049.26L1049.79 17.6ZM1056.01 25.12C1055.38 25.12 1054.87 25.0067 1054.47 24.78C1054.07 24.5467 1053.74 24.25 1053.48 23.89L1054.09 23.39C1054.36 23.73 1054.65 23.9833 1054.95 24.15C1055.25 24.3167 1055.62 24.4 1056.04 24.4C1056.54 24.4 1056.93 24.2833 1057.2 24.05C1057.46 23.8167 1057.6 23.49 1057.6 23.07C1057.6 22.73 1057.5 22.4667 1057.31 22.28C1057.11 22.0867 1056.78 21.95 1056.3 21.87L1055.52 21.74C1055.18 21.68 1054.89 21.59 1054.66 21.47C1054.43 21.35 1054.25 21.2067 1054.11 21.04C1053.97 20.8667 1053.87 20.68 1053.81 20.48C1053.75 20.2733 1053.72 20.06 1053.72 19.84C1053.72 19.2 1053.93 18.7167 1054.35 18.39C1054.77 18.0633 1055.33 17.9 1056.05 17.9C1056.61 17.9 1057.08 17.9933 1057.46 18.18C1057.84 18.3667 1058.15 18.63 1058.39 18.97L1057.8 19.48C1057.6 19.2267 1057.37 19.02 1057.1 18.86C1056.82 18.7 1056.47 18.62 1056.04 18.62C1055.56 18.62 1055.2 18.72 1054.95 18.92C1054.69 19.12 1054.57 19.42 1054.57 19.82C1054.57 20.1333 1054.66 20.39 1054.85 20.59C1055.04 20.7833 1055.38 20.9233 1055.88 21.01L1056.63 21.14C1056.97 21.2 1057.25 21.29 1057.49 21.41C1057.72 21.53 1057.91 21.6733 1058.05 21.84C1058.19 22.0067 1058.3 22.1933 1058.36 22.4C1058.42 22.6067 1058.45 22.8233 1058.45 23.05C1058.45 23.6967 1058.23 24.2033 1057.81 24.57C1057.39 24.9367 1056.79 25.12 1056.01 25.12ZM1065.92 25V18.02H1070.32V18.75H1066.76V21.1H1070.02V21.83H1066.76V25H1065.92ZM1072.76 25H1071.92V18.02H1074.46C1075.1 18.02 1075.6 18.1967 1075.94 18.55C1076.28 18.9033 1076.45 19.3967 1076.45 20.03C1076.45 20.5967 1076.3 21.05 1076.01 21.39C1075.71 21.73 1075.29 21.9267 1074.73 21.98L1076.51 25H1075.57L1073.87 22.02H1072.76V25ZM1074.44 21.31C1074.79 21.31 1075.06 21.2233 1075.26 21.05C1075.46 20.87 1075.56 20.6167 1075.56 20.29V19.77C1075.56 19.4433 1075.46 19.1933 1075.26 19.02C1075.06 18.84 1074.79 18.75 1074.44 18.75H1072.76V21.31H1074.44ZM1077.91 25V18.02H1082.21V18.75H1078.75V21.1H1082.09V21.83H1078.75V24.27H1082.21V25H1077.91ZM1083.91 25V18.02H1088.21V18.75H1084.75V21.1H1088.09V21.83H1084.75V24.27H1088.21V25H1083.91ZM1091.39 22.85V21.28C1091.97 21.2533 1092.42 21.13 1092.74 20.91C1093.07 20.6833 1093.23 20.3433 1093.23 19.89V19.75C1093.23 19.3767 1093.12 19.0967 1092.89 18.91C1092.67 18.7233 1092.37 18.63 1091.98 18.63C1091.58 18.63 1091.26 18.74 1091.02 18.96C1090.78 19.18 1090.62 19.46 1090.52 19.8L1089.77 19.52C1089.84 19.3 1089.93 19.0933 1090.05 18.9C1090.17 18.7 1090.32 18.5267 1090.5 18.38C1090.69 18.2333 1090.91 18.1167 1091.15 18.03C1091.41 17.9433 1091.69 17.9 1092.01 17.9C1092.33 17.9 1092.62 17.9467 1092.87 18.04C1093.13 18.1267 1093.35 18.2533 1093.53 18.42C1093.71 18.58 1093.85 18.7767 1093.95 19.01C1094.05 19.2433 1094.1 19.5033 1094.1 19.79C1094.1 20.1033 1094.05 20.38 1093.93 20.62C1093.82 20.8533 1093.67 21.0533 1093.49 21.22C1093.31 21.3867 1093.11 21.5233 1092.87 21.63C1092.65 21.73 1092.42 21.8 1092.18 21.84V22.85H1091.39ZM1091.82 25.09C1091.55 25.09 1091.36 25.0333 1091.24 24.92C1091.14 24.8067 1091.08 24.6633 1091.08 24.49V24.31C1091.08 24.1367 1091.14 23.9933 1091.24 23.88C1091.36 23.7667 1091.55 23.71 1091.82 23.71C1092.1 23.71 1092.29 23.7667 1092.39 23.88C1092.51 23.9933 1092.56 24.1367 1092.56 24.31V24.49C1092.56 24.6633 1092.51 24.8067 1092.39 24.92C1092.29 25.0333 1092.1 25.09 1091.82 25.09Z" fill="#AABCA3"/>
</svg>
