<svg width="1634" height="161" viewBox="0 0 1634 161" fill="none" xmlns="http://www.w3.org/2000/svg">
<path d="M139 72.5C139 72.5 103.122 125 79.9521 125C56.7826 125 38 101.495 38 72.5C38 43.5051 56.7826 20 79.9521 20C103.122 20 139 72.5 139 72.5ZM139 72.5C139 72.5 174.878 125 198.048 125C221.217 125 240 101.495 240 72.5C240 43.5051 221.217 20 198.048 20C174.878 20 139 72.5 139 72.5ZM139 72.5C139 72.5 107.676 125 87.4482 125C67.22 125 50.8218 101.495 50.8218 72.5C50.8218 43.5051 67.22 20 87.4482 20C107.676 20 139 72.5 139 72.5ZM139 72.5C139 72.5 170.324 125 190.552 125C210.78 125 227.178 101.495 227.178 72.5C227.178 43.5051 210.78 20 190.552 20C170.324 20 139 72.5 139 72.5ZM139 72.5C139 72.5 112.391 125 95.2072 125C78.0236 125 64.0935 101.495 64.0935 72.5C64.0935 43.5051 78.0236 20 95.2072 20C112.391 20 139 72.5 139 72.5ZM139 72.5C139 72.5 165.609 125 182.793 125C199.976 125 213.906 101.495 213.906 72.5C213.906 43.5051 199.976 20 182.793 20C165.609 20 139 72.5 139 72.5ZM139 72.5C139 72.5 117.904 125 104.281 125C90.6584 125 79.6147 101.495 79.6147 72.5C79.6147 43.5051 90.6584 20 104.281 20C117.904 20 139 72.5 139 72.5ZM139 72.5C139 72.5 160.096 125 173.719 125C187.342 125 198.385 101.495 198.385 72.5C198.385 43.5051 187.342 20 173.719 20C160.096 20 139 72.5 139 72.5ZM139 72.5C139 72.5 123.258 125 113.093 125C102.927 125 94.686 101.495 94.686 72.5C94.686 43.5051 102.927 20 113.093 20C123.258 20 139 72.5 139 72.5ZM139 72.5C139 72.5 154.742 125 164.907 125C175.073 125 183.314 101.495 183.314 72.5C183.314 43.5051 175.073 20 164.907 20C154.742 20 139 72.5 139 72.5ZM139 72.5C139 72.5 128.612 125 121.904 125C115.195 125 109.757 101.495 109.757 72.5C109.757 43.5051 115.195 20 121.904 20C128.612 20 139 72.5 139 72.5ZM139 72.5C139 72.5 149.388 125 156.096 125C162.805 125 168.243 101.495 168.243 72.5C168.243 43.5051 162.805 20 156.096 20C149.388 20 139 72.5 139 72.5ZM139 72.5C139 72.5 133.966 125 130.715 125C127.464 125 124.829 101.495 124.829 72.5C124.829 43.5051 127.464 20 130.715 20C133.966 20 139 72.5 139 72.5ZM139 72.5C139 72.5 144.034 125 147.285 125C150.536 125 153.171 101.495 153.171 72.5C153.171 43.5051 150.536 20 147.285 20C144.034 20 139 72.5 139 72.5ZM139 72.5C139 101.495 139.021 125 139.047 125C139.073 125 139.112 72.5 139.112 72.5M139 72.5C139 43.5051 139.021 20 139.047 20C139.073 20 139.112 72.5 139.112 72.5M139.112 72.5C139.112 72.5 139.152 125 139.178 125C139.204 125 139.225 101.495 139.225 72.5C139.225 43.5051 139.204 20 139.178 20C139.152 20 139.112 72.5 139.112 72.5Z" stroke="#dbdac9" stroke-miterlimit="10" stroke-linecap="round" stroke-linejoin="round"/>
<path d="M1633.5 89V154.5H1528.5L1489 126.5H1103" stroke="#dbdac9"/>
<path d="M0.5 0V120.5L43 160H216.5" stroke="#dbdac9"/>
</svg>
