<svg width="1205" height="196" viewBox="0 0 1205 196" fill="none" xmlns="http://www.w3.org/2000/svg">
<path d="M12.3596 0.455996L29.2556 31.656H29.4476C35.0156 21.384 40.2956 11.592 46.1516 0.455996H57.9596L34.3436 41.256V69H23.9756V41.256L0.455625 0.455996H12.3596ZM76.9271 70.248C62.0471 70.248 51.6791 59.304 51.6791 44.232C51.6791 29.16 62.0471 18.12 76.9271 18.12C91.8071 18.12 102.079 29.16 102.079 44.232C102.079 59.304 91.8071 70.248 76.9271 70.248ZM61.4711 44.232C61.4711 54.024 67.6151 62.088 76.9271 62.088C86.1431 62.088 92.3831 54.024 92.3831 44.232C92.3831 34.344 86.1431 26.28 76.9271 26.28C67.6151 26.28 61.4711 34.344 61.4711 44.232ZM110.711 50.952V19.368H120.503V49.32C120.503 57.576 123.671 61.8 130.487 61.8C137.591 61.8 143.351 55.752 143.351 43.08V19.368H153.239V69H143.447V59.976C140.855 65.64 136.247 70.248 128.567 70.248C115.607 70.248 110.711 61.704 110.711 50.952ZM165.499 0.263998H176.443L169.147 23.976H160.315L165.499 0.263998ZM191 19.368C195.416 32.712 199.832 45.768 204.248 59.112H204.344C208.376 46.44 213.08 32.616 217.4 19.368H227.96C221.816 35.88 215.768 52.488 209.624 69H198.68C192.536 52.488 186.488 35.88 180.344 19.368H191ZM277.882 54.312C275.098 64.584 266.65 70.248 255.226 70.248C240.442 70.248 230.554 59.592 230.554 43.944C230.554 28.968 240.922 18.12 255.13 18.12C272.314 18.12 278.554 31.656 278.65 45.096V46.92H240.058C240.826 56.424 246.778 62.184 255.13 62.184C261.274 62.184 266.458 59.784 268.186 54.312H277.882ZM240.154 39.528H268.858C268.09 31.656 263.674 25.992 255.13 25.992C246.682 25.992 241.306 31.464 240.154 39.528ZM353.913 54.312C351.129 64.584 342.681 70.248 331.257 70.248C316.473 70.248 306.585 59.592 306.585 43.944C306.585 28.968 316.953 18.12 331.161 18.12C348.345 18.12 354.585 31.656 354.681 45.096V46.92H316.089C316.857 56.424 322.809 62.184 331.161 62.184C337.305 62.184 342.489 59.784 344.217 54.312H353.913ZM316.185 39.528H344.889C344.121 31.656 339.705 25.992 331.161 25.992C322.713 25.992 317.337 31.464 316.185 39.528ZM364.126 69V19.368H373.918V28.392C376.51 22.728 381.118 18.12 388.798 18.12C401.758 18.12 406.654 26.664 406.654 37.416V69H396.862V39.048C396.862 30.792 393.694 26.568 386.878 26.568C379.774 26.568 374.014 32.616 374.014 45.288V69H364.126ZM428.199 19.368V28.968C430.791 21.864 435.783 19.08 443.079 19.08V28.392C442.599 28.392 440.391 28.488 438.951 28.872C433.671 29.736 428.295 32.328 428.295 45.96V69H418.407V19.368H428.199ZM472.833 70.248C457.953 70.248 447.585 59.304 447.585 44.232C447.585 29.16 457.953 18.12 472.833 18.12C487.713 18.12 497.985 29.16 497.985 44.232C497.985 59.304 487.713 70.248 472.833 70.248ZM457.377 44.232C457.377 54.024 463.521 62.088 472.833 62.088C482.049 62.088 488.289 54.024 488.289 44.232C488.289 34.344 482.049 26.28 472.833 26.28C463.521 26.28 457.377 34.344 457.377 44.232ZM507.001 0.455996H516.889V69H507.001V0.455996ZM528.939 0.455996H538.827V69H528.939V0.455996ZM595.132 54.312C592.348 64.584 583.9 70.248 572.476 70.248C557.692 70.248 547.804 59.592 547.804 43.944C547.804 28.968 558.172 18.12 572.38 18.12C589.564 18.12 595.804 31.656 595.9 45.096V46.92H557.308C558.076 56.424 564.028 62.184 572.38 62.184C578.524 62.184 583.708 59.784 585.436 54.312H595.132ZM557.404 39.528H586.108C585.34 31.656 580.924 25.992 572.38 25.992C563.932 25.992 558.556 31.464 557.404 39.528ZM625.121 18.12C633.953 18.12 639.905 23.976 641.633 28.872H641.729V0.455996H651.713V69H641.633V59.784H641.537C639.713 64.488 633.953 70.152 625.121 70.152C611.297 70.152 602.273 59.592 602.273 44.04C602.273 28.488 611.297 18.12 625.121 18.12ZM612.065 44.04C612.065 54.312 617.153 61.992 627.137 61.992C637.409 61.992 642.209 53.448 642.209 44.04C642.209 34.824 637.313 26.28 627.137 26.28C617.441 26.28 612.065 33.864 612.065 44.04ZM690.495 19.368C695.487 32.808 700.287 45.576 705.183 58.92H705.375C709.503 46.248 714.111 32.712 718.527 19.368H728.991C719.199 46.056 716.895 51.336 706.815 78.696C704.607 84.648 700.863 88.2 694.143 88.2H686.559V80.136H692.031C696.447 80.136 697.407 77.832 698.751 74.376L700.383 70.248C693.279 52.392 686.655 36.072 680.031 19.368H690.495ZM756.896 70.248C742.016 70.248 731.648 59.304 731.648 44.232C731.648 29.16 742.016 18.12 756.896 18.12C771.776 18.12 782.048 29.16 782.048 44.232C782.048 59.304 771.776 70.248 756.896 70.248ZM741.44 44.232C741.44 54.024 747.584 62.088 756.896 62.088C766.112 62.088 772.352 54.024 772.352 44.232C772.352 34.344 766.112 26.28 756.896 26.28C747.584 26.28 741.44 34.344 741.44 44.232ZM790.68 50.952V19.368H800.472V49.32C800.472 57.576 803.64 61.8 810.456 61.8C817.56 61.8 823.32 55.752 823.32 43.08V19.368H833.208V69H823.416V59.976C820.824 65.64 816.216 70.248 808.536 70.248C795.576 70.248 790.68 61.704 790.68 50.952ZM855.137 19.368V28.968C857.729 21.864 862.721 19.08 870.017 19.08V28.392C869.537 28.392 867.329 28.488 865.889 28.872C860.609 29.736 855.233 32.328 855.233 45.96V69H845.345V19.368H855.137ZM911.718 53.544C911.718 58.344 913.734 61.032 918.054 61.032H921.414V69.096H916.614C906.054 69.096 902.022 62.952 902.022 54.504V27.24H894.438V19.368H902.022V7.848L911.718 3.528V19.368H921.318V27.24H911.718V53.544ZM974.538 54.312C971.754 64.584 963.306 70.248 951.882 70.248C937.098 70.248 927.21 59.592 927.21 43.944C927.21 28.968 937.578 18.12 951.786 18.12C968.97 18.12 975.21 31.656 975.306 45.096V46.92H936.714C937.482 56.424 943.434 62.184 951.786 62.184C957.93 62.184 963.114 59.784 964.842 54.312H974.538ZM936.81 39.528H965.514C964.746 31.656 960.33 25.992 951.786 25.992C943.338 25.992 937.962 31.464 936.81 39.528ZM984.559 34.44C985.711 26.856 992.047 18.024 1005.01 18.024C1022.38 18.024 1025.46 28.872 1025.46 38.088V58.248C1025.46 61.992 1025.74 66.312 1026.22 69H1015.95C1015.76 66.888 1015.76 64.872 1015.76 62.472V60.36H1015.66C1014.22 64.296 1010.1 70.248 999.535 70.248C988.015 70.248 982.159 62.952 982.159 55.464C982.159 41.544 999.439 40.776 1006.74 39.528C1013.17 38.472 1015.66 36.936 1015.66 32.808C1015.66 28.68 1011.82 25.992 1005.2 25.992C999.535 25.992 995.311 29.256 994.159 34.44H984.559ZM991.951 55.272C991.951 59.592 995.791 62.472 1001.74 62.472C1008.85 62.472 1015.86 57.96 1015.86 45.96V39.912C1014.8 42.888 1012.4 45.672 1002.9 47.304C995.887 48.648 991.951 50.664 991.951 55.272ZM1037.16 69V19.368H1046.95V27.72C1048.1 23.112 1052.9 18.12 1059.72 18.12C1067.4 18.12 1072.01 21.192 1074.31 27.816C1077.29 21.384 1081.61 18.12 1088.42 18.12C1100.61 18.12 1105.8 26.664 1105.8 37.416V69H1096.01V39.048C1096.01 30.792 1093.03 26.568 1087.08 26.568C1080.93 26.568 1076.33 32.712 1076.33 44.808V69H1066.63V39.048C1066.63 30.792 1064.61 26.568 1057.8 26.568C1049.35 26.568 1047.05 35.208 1047.05 45.288V69H1037.16ZM1149.62 10.728H1139.26V0.455996H1149.62V10.728ZM1139.06 69V19.368H1148.95V69H1139.06ZM1161.75 69V19.368H1171.54V28.392C1174.14 22.728 1178.74 18.12 1186.42 18.12C1199.38 18.12 1204.28 26.664 1204.28 37.416V69H1194.49V39.048C1194.49 30.792 1191.32 26.568 1184.5 26.568C1177.4 26.568 1171.64 32.616 1171.64 45.288V69H1161.75ZM348.403 176V107.456H373.555C389.203 107.456 397.267 116 397.267 126.944C397.267 136.832 390.739 143.072 383.251 144.896C389.779 146.624 391.795 151.904 394.291 160.16C396.211 166.4 397.747 170.72 400.243 175.136V176H389.395C387.091 171.488 385.459 165.248 383.443 159.776C381.043 153.44 378.163 148.544 369.811 148.544H358.771V176H348.403ZM358.771 139.904H373.075C382.195 139.904 386.899 135.008 386.899 127.328C386.899 121.28 383.347 116.096 372.595 116.096H358.771V139.904ZM408.653 141.44C409.805 133.856 416.141 125.024 429.101 125.024C446.477 125.024 449.549 135.872 449.549 145.088V165.248C449.549 168.992 449.837 173.312 450.317 176H440.045C439.853 173.888 439.853 171.872 439.853 169.472V167.36H439.757C438.317 171.296 434.189 177.248 423.629 177.248C412.109 177.248 406.253 169.952 406.253 162.464C406.253 148.544 423.533 147.776 430.829 146.528C437.261 145.472 439.757 143.936 439.757 139.808C439.757 135.68 435.917 132.992 429.293 132.992C423.629 132.992 419.405 136.256 418.253 141.44H408.653ZM416.045 162.272C416.045 166.592 419.885 169.472 425.837 169.472C432.941 169.472 439.949 164.96 439.949 152.96V146.912C438.893 149.888 436.493 152.672 426.989 154.304C419.981 155.648 416.045 157.664 416.045 162.272ZM461.251 176V126.368H471.043V134.72C472.195 130.112 476.995 125.12 483.811 125.12C491.491 125.12 496.099 128.192 498.403 134.816C501.379 128.384 505.699 125.12 512.515 125.12C524.707 125.12 529.891 133.664 529.891 144.416V176H520.099V146.048C520.099 137.792 517.123 133.568 511.171 133.568C505.027 133.568 500.419 139.712 500.419 151.808V176H490.723V146.048C490.723 137.792 488.707 133.568 481.891 133.568C473.443 133.568 471.139 142.208 471.139 152.288V176H461.251ZM568.187 125.12C582.011 125.12 591.035 135.488 591.035 151.04C591.035 166.592 581.915 177.152 568.091 177.152C559.355 177.152 553.499 171.488 551.675 166.784H551.579V195.2H541.595V126.368H551.579V135.872H551.675C553.403 130.976 559.259 125.12 568.187 125.12ZM551.003 151.04C551.003 160.448 555.803 168.992 566.075 168.992C576.059 168.992 581.147 161.312 581.147 151.04C581.147 140.864 575.867 133.28 566.075 133.28C555.899 133.28 551.003 141.824 551.003 151.04ZM617.049 116.192V107.456H668.793V116.192H648.057V176H637.689V116.192H617.049ZM677.949 126.368V135.968C680.541 128.864 685.533 126.08 692.829 126.08V135.392C692.349 135.392 690.141 135.488 688.701 135.872C683.421 136.736 678.045 139.328 678.045 152.96V176H668.157V126.368H677.949ZM698.34 141.44C699.492 133.856 705.828 125.024 718.788 125.024C736.164 125.024 739.236 135.872 739.236 145.088V165.248C739.236 168.992 739.524 173.312 740.004 176H729.732C729.54 173.888 729.54 171.872 729.54 169.472V167.36H729.444C728.004 171.296 723.876 177.248 713.316 177.248C701.796 177.248 695.94 169.952 695.94 162.464C695.94 148.544 713.22 147.776 720.516 146.528C726.948 145.472 729.444 143.936 729.444 139.808C729.444 135.68 725.604 132.992 718.98 132.992C713.316 132.992 709.092 136.256 707.94 141.44H698.34ZM705.732 162.272C705.732 166.592 709.572 169.472 715.524 169.472C722.628 169.472 729.636 164.96 729.636 152.96V146.912C728.58 149.888 726.18 152.672 716.676 154.304C709.668 155.648 705.732 157.664 705.732 162.272ZM754.812 126.368C759.228 139.712 763.644 152.768 768.06 166.112H768.156C772.188 153.44 776.892 139.616 781.212 126.368H791.772C785.628 142.88 779.58 159.488 773.436 176H762.492C756.348 159.488 750.3 142.88 744.156 126.368H754.812ZM841.695 161.312C838.911 171.584 830.463 177.248 819.039 177.248C804.255 177.248 794.367 166.592 794.367 150.944C794.367 135.968 804.735 125.12 818.943 125.12C836.127 125.12 842.367 138.656 842.463 152.096V153.92H803.871C804.639 163.424 810.591 169.184 818.943 169.184C825.087 169.184 830.271 166.784 831.999 161.312H841.695ZM803.967 146.528H832.671C831.903 138.656 827.487 132.992 818.943 132.992C810.495 132.992 805.119 138.464 803.967 146.528ZM851.907 107.456H861.795V176H851.907V107.456Z" fill="white"/>
</svg>
