<svg width="1060" height="89" viewBox="0 0 1060 89" fill="none" xmlns="http://www.w3.org/2000/svg">
<path d="M0.535875 0.455996H11.4799L22.4239 50.184L24.0559 57.96H24.2479L25.9759 50.184L37.1119 0.455996H50.9359L61.5919 50.184L63.3199 58.056H63.5119L65.2399 50.184L76.7599 0.455996H87.7039L75.0319 50.184L70.3279 69H56.3119L52.4719 50.184L44.1199 10.824H43.9279L35.0959 50.184L30.9679 69H17.0479L12.6319 50.184L0.535875 0.455996ZM136.788 54.312C134.004 64.584 125.556 70.248 114.132 70.248C99.3484 70.248 89.4604 59.592 89.4604 43.944C89.4604 28.968 99.8284 18.12 114.036 18.12C131.22 18.12 137.46 31.656 137.556 45.096V46.92H98.9644C99.7324 56.424 105.684 62.184 114.036 62.184C120.18 62.184 125.364 59.784 127.092 54.312H136.788ZM99.0604 39.528H127.764C126.996 31.656 122.58 25.992 114.036 25.992C105.588 25.992 100.212 31.464 99.0604 39.528ZM147.001 0.455996H156.889V69H147.001V0.455996ZM214.059 53.352C211.467 64.104 203.595 70.248 191.595 70.248C176.427 70.248 165.867 59.592 165.867 44.232C165.867 28.776 176.427 18.12 191.595 18.12C204.075 18.12 211.659 25.128 213.675 34.728H204.075C202.251 30.024 198.699 26.088 191.403 26.088C181.803 26.088 175.659 34.056 175.659 44.232C175.659 54.312 181.803 62.184 191.403 62.184C198.027 62.184 202.347 59.112 204.363 53.352H214.059ZM245.865 70.248C230.985 70.248 220.617 59.304 220.617 44.232C220.617 29.16 230.985 18.12 245.865 18.12C260.745 18.12 271.017 29.16 271.017 44.232C271.017 59.304 260.745 70.248 245.865 70.248ZM230.409 44.232C230.409 54.024 236.553 62.088 245.865 62.088C255.081 62.088 261.321 54.024 261.321 44.232C261.321 34.344 255.081 26.28 245.865 26.28C236.553 26.28 230.409 34.344 230.409 44.232ZM280.032 69V19.368H289.824V27.72C290.976 23.112 295.776 18.12 302.592 18.12C310.272 18.12 314.88 21.192 317.184 27.816C320.16 21.384 324.48 18.12 331.296 18.12C343.488 18.12 348.672 26.664 348.672 37.416V69H338.88V39.048C338.88 30.792 335.904 26.568 329.952 26.568C323.808 26.568 319.2 32.712 319.2 44.808V69H309.504V39.048C309.504 30.792 307.488 26.568 300.672 26.568C292.224 26.568 289.92 35.208 289.92 45.288V69H280.032ZM404.632 54.312C401.848 64.584 393.4 70.248 381.976 70.248C367.192 70.248 357.304 59.592 357.304 43.944C357.304 28.968 367.672 18.12 381.88 18.12C399.064 18.12 405.304 31.656 405.4 45.096V46.92H366.808C367.576 56.424 373.528 62.184 381.88 62.184C388.024 62.184 393.208 59.784 394.936 54.312H404.632ZM366.904 39.528H395.608C394.84 31.656 390.424 25.992 381.88 25.992C373.432 25.992 368.056 31.464 366.904 39.528ZM448.311 53.544C448.311 58.344 450.327 61.032 454.647 61.032H458.007V69.096H453.207C442.647 69.096 438.615 62.952 438.615 54.504V27.24H431.031V19.368H438.615V7.848L448.311 3.528V19.368H457.911V27.24H448.311V53.544ZM489.052 70.248C474.172 70.248 463.804 59.304 463.804 44.232C463.804 29.16 474.172 18.12 489.052 18.12C503.932 18.12 514.204 29.16 514.204 44.232C514.204 59.304 503.932 70.248 489.052 70.248ZM473.596 44.232C473.596 54.024 479.74 62.088 489.052 62.088C498.268 62.088 504.508 54.024 504.508 44.232C504.508 34.344 498.268 26.28 489.052 26.28C479.74 26.28 473.596 34.344 473.596 44.232ZM545.934 69V0.455996H571.086C586.734 0.455996 594.798 9 594.798 19.944C594.798 29.832 588.27 36.072 580.782 37.896C587.31 39.624 589.326 44.904 591.822 53.16C593.742 59.4 595.278 63.72 597.774 68.136V69H586.926C584.622 64.488 582.99 58.248 580.974 52.776C578.574 46.44 575.694 41.544 567.342 41.544H556.302V69H545.934ZM556.302 32.904H570.606C579.726 32.904 584.43 28.008 584.43 20.328C584.43 14.28 580.878 9.096 570.126 9.096H556.302V32.904ZM606.184 34.44C607.336 26.856 613.672 18.024 626.632 18.024C644.008 18.024 647.08 28.872 647.08 38.088V58.248C647.08 61.992 647.368 66.312 647.848 69H637.576C637.384 66.888 637.384 64.872 637.384 62.472V60.36H637.288C635.848 64.296 631.72 70.248 621.16 70.248C609.64 70.248 603.784 62.952 603.784 55.464C603.784 41.544 621.064 40.776 628.36 39.528C634.792 38.472 637.288 36.936 637.288 32.808C637.288 28.68 633.448 25.992 626.824 25.992C621.16 25.992 616.936 29.256 615.784 34.44H606.184ZM613.576 55.272C613.576 59.592 617.416 62.472 623.368 62.472C630.472 62.472 637.48 57.96 637.48 45.96V39.912C636.424 42.888 634.024 45.672 624.52 47.304C617.512 48.648 613.576 50.664 613.576 55.272ZM658.782 69V19.368H668.574V27.72C669.726 23.112 674.526 18.12 681.342 18.12C689.022 18.12 693.63 21.192 695.934 27.816C698.91 21.384 703.23 18.12 710.046 18.12C722.238 18.12 727.422 26.664 727.422 37.416V69H717.63V39.048C717.63 30.792 714.654 26.568 708.702 26.568C702.558 26.568 697.95 32.712 697.95 44.808V69H688.254V39.048C688.254 30.792 686.238 26.568 679.422 26.568C670.974 26.568 668.67 35.208 668.67 45.288V69H658.782ZM765.718 18.12C779.542 18.12 788.566 28.488 788.566 44.04C788.566 59.592 779.446 70.152 765.622 70.152C756.886 70.152 751.03 64.488 749.206 59.784H749.11V88.2H739.126V19.368H749.11V28.872H749.206C750.934 23.976 756.79 18.12 765.718 18.12ZM748.534 44.04C748.534 53.448 753.334 61.992 763.606 61.992C773.59 61.992 778.678 54.312 778.678 44.04C778.678 33.864 773.398 26.28 763.606 26.28C753.43 26.28 748.534 34.824 748.534 44.04ZM814.581 9.192V0.455996H866.325V9.192H845.589V69H835.221V9.192H814.581ZM875.481 19.368V28.968C878.073 21.864 883.065 19.08 890.361 19.08V28.392C889.881 28.392 887.673 28.488 886.233 28.872C880.953 29.736 875.577 32.328 875.577 45.96V69H865.689V19.368H875.481ZM895.872 34.44C897.024 26.856 903.36 18.024 916.32 18.024C933.696 18.024 936.768 28.872 936.768 38.088V58.248C936.768 61.992 937.056 66.312 937.536 69H927.264C927.072 66.888 927.072 64.872 927.072 62.472V60.36H926.976C925.536 64.296 921.408 70.248 910.848 70.248C899.328 70.248 893.472 62.952 893.472 55.464C893.472 41.544 910.752 40.776 918.048 39.528C924.48 38.472 926.976 36.936 926.976 32.808C926.976 28.68 923.136 25.992 916.512 25.992C910.848 25.992 906.624 29.256 905.472 34.44H895.872ZM903.264 55.272C903.264 59.592 907.104 62.472 913.056 62.472C920.16 62.472 927.168 57.96 927.168 45.96V39.912C926.112 42.888 923.712 45.672 914.208 47.304C907.2 48.648 903.264 50.664 903.264 55.272ZM952.344 19.368C956.76 32.712 961.176 45.768 965.592 59.112H965.688C969.72 46.44 974.424 32.616 978.744 19.368H989.304C983.16 35.88 977.112 52.488 970.968 69H960.024C953.88 52.488 947.832 35.88 941.688 19.368H952.344ZM1039.23 54.312C1036.44 64.584 1027.99 70.248 1016.57 70.248C1001.79 70.248 991.898 59.592 991.898 43.944C991.898 28.968 1002.27 18.12 1016.47 18.12C1033.66 18.12 1039.9 31.656 1039.99 45.096V46.92H1001.4C1002.17 56.424 1008.12 62.184 1016.47 62.184C1022.62 62.184 1027.8 59.784 1029.53 54.312H1039.23ZM1001.5 39.528H1030.2C1029.43 31.656 1025.02 25.992 1016.47 25.992C1008.03 25.992 1002.65 31.464 1001.5 39.528ZM1049.44 0.455996H1059.33V69H1049.44V0.455996Z" fill="#DBDAC9"/>
</svg>
